<svg width="22" height="22" viewBox="0 0 22 22" fill="none" xmlns="http://www.w3.org/2000/svg">
<path opacity="0.5" fill-rule="evenodd" clip-rule="evenodd" d="M10.75 6.37576e-07C13.0857 6.37576e-07 14.9129 -0.00178894 16.3359 0.189454C17.7806 0.383626 18.9208 0.788984 19.8154 1.68359L19.9775 1.85449C20.7602 2.72286 21.1284 3.8095 21.3105 5.16406C21.5019 6.58717 21.5 8.41426 21.5 10.75C21.5 13.0856 21.5019 14.9129 21.3105 16.3359C21.1284 17.6902 20.7602 18.7769 19.9775 19.6445L19.8154 19.8154C18.9214 20.7105 17.7814 21.1163 16.3369 21.3105C14.9137 21.502 13.0858 21.5 10.75 21.5C8.41445 21.5 6.58723 21.5019 5.16406 21.3105C3.80956 21.1284 2.72251 20.7602 1.85449 19.9775L1.68359 19.8154C0.788971 18.9213 0.383621 17.7813 0.189454 16.3369C-0.00182103 14.9137 6.3645e-07 13.0858 6.3645e-07 10.75C6.36118e-07 8.41439 -0.00177205 6.5872 0.189454 5.16406C0.383627 3.71931 0.78915 2.57865 1.68359 1.68359L1.85449 1.52148C2.7229 0.739261 3.80951 0.37152 5.16406 0.189454C6.58714 -0.0018221 8.4142 6.37235e-07 10.75 6.37576e-07ZM10.75 1.5C8.37198 1.5 6.66415 1.50207 5.36426 1.67676C4.08597 1.84857 3.31468 2.17536 2.74414 2.74512L2.74316 2.74414C2.17407 3.31398 1.84853 4.08547 1.67676 5.36328C1.50203 6.66334 1.5 8.37181 1.5 10.75C1.5 13.1282 1.50203 14.8367 1.67676 16.1367C1.8486 17.4153 2.17496 18.1861 2.74414 18.7549C3.31405 19.3248 4.0851 19.6513 5.36328 19.8232C6.6633 19.9981 8.37179 20 10.75 20C13.1282 20 14.8367 19.9981 16.1367 19.8232C17.4151 19.6513 18.1851 19.3244 18.7539 18.7549C19.3236 18.1855 19.6513 17.4147 19.8232 16.1367C19.9981 14.8368 20 13.1282 20 10.75C20 8.37193 19.998 6.66411 19.8232 5.36426C19.6513 4.0862 19.3249 3.31468 18.7549 2.74414C18.1856 2.17482 17.4148 1.8486 16.1367 1.67676C14.8368 1.50203 13.1282 1.5 10.75 1.5Z" fill="#7E19DC"/>
<path d="M13.7197 7.71967C14.0126 7.42678 14.4873 7.42678 14.7802 7.71967C15.0731 8.01257 15.0731 8.48734 14.7802 8.78022L9.78022 13.7802C9.48734 14.0731 9.01257 14.0731 8.71967 13.7802L6.71967 11.7802C6.42678 11.4873 6.42678 11.0126 6.71967 10.7197C7.01256 10.4268 7.48732 10.4268 7.78022 10.7197L9.24994 12.1894L13.7197 7.71967Z" fill="#7E19DC"/>
</svg>
