<svg width="24" height="24" viewBox="0 0 24 24" fill="none" xmlns="http://www.w3.org/2000/svg">
<path fill-rule="evenodd" clip-rule="evenodd" d="M12 1.25C14.3357 1.25 16.1629 1.24821 17.5859 1.43945C19.0306 1.63363 20.1708 2.03898 21.0654 2.93359L21.2275 3.10449C22.0102 3.97286 22.3784 5.0595 22.5605 6.41406C22.7519 7.83717 22.75 9.66426 22.75 12C22.75 14.3356 22.7519 16.1629 22.5605 17.5859C22.3784 18.9402 22.0102 20.0269 21.2275 20.8945L21.0654 21.0654C20.1714 21.9605 19.0314 22.3663 17.5869 22.5605C16.1637 22.752 14.3358 22.75 12 22.75C9.66445 22.75 7.83723 22.7519 6.41406 22.5605C5.05956 22.3784 3.97251 22.0102 3.10449 21.2275L2.93359 21.0654C2.03897 20.1713 1.63362 19.0313 1.43945 17.5869C1.24818 16.1637 1.25 14.3358 1.25 12C1.25 9.66439 1.24823 7.8372 1.43945 6.41406C1.63363 4.96931 2.03915 3.82865 2.93359 2.93359L3.10449 2.77148C3.9729 1.98926 5.05951 1.62152 6.41406 1.43945C7.83714 1.24818 9.6642 1.25 12 1.25ZM12 2.75C9.62198 2.75 7.91415 2.75207 6.61426 2.92676C5.33597 3.09857 4.56468 3.42536 3.99414 3.99512L3.99316 3.99414C3.42407 4.56398 3.09853 5.33547 2.92676 6.61328C2.75203 7.91334 2.75 9.62181 2.75 12C2.75 14.3782 2.75203 16.0867 2.92676 17.3867C3.0986 18.6653 3.42496 19.4361 3.99414 20.0049C4.56405 20.5748 5.3351 20.9013 6.61328 21.0732C7.9133 21.2481 9.62179 21.25 12 21.25C14.3782 21.25 16.0867 21.2481 17.3867 21.0732C18.6651 20.9013 19.4351 20.5744 20.0039 20.0049C20.5736 19.4355 20.9013 18.6647 21.0732 17.3867C21.2481 16.0868 21.25 14.3782 21.25 12C21.25 9.62193 21.248 7.91411 21.0732 6.61426C20.9013 5.3362 20.5749 4.56468 20.0049 3.99414C19.4356 3.42482 18.6648 3.0986 17.3867 2.92676C16.0868 2.75203 14.3782 2.75 12 2.75Z" fill="#D0D2DC"/>
</svg>
