<svg width="24" height="24" viewBox="0 0 24 24" fill="none" xmlns="http://www.w3.org/2000/svg">
<path fill-rule="evenodd" clip-rule="evenodd" d="M11.512 8.42999C11.6479 8.31353 11.821 8.24951 12 8.24951C12.179 8.24951 12.3521 8.31353 12.488 8.42999L19.488 14.43C19.5629 14.4941 19.6244 14.5723 19.669 14.6601C19.7136 14.748 19.7405 14.8438 19.7481 14.942C19.7557 15.0403 19.7439 15.139 19.7134 15.2327C19.6828 15.3264 19.6341 15.4131 19.57 15.488C19.5059 15.5628 19.4277 15.6243 19.3399 15.669C19.252 15.7136 19.1562 15.7405 19.058 15.7481C18.9597 15.7557 18.861 15.7439 18.7673 15.7134C18.6736 15.6828 18.5869 15.6341 18.512 15.57L12 9.98699L5.48801 15.568C5.41386 15.6359 5.32681 15.6882 5.23204 15.7218C5.13727 15.7554 5.03672 15.7696 4.93636 15.7635C4.83599 15.7575 4.73787 15.7313 4.64782 15.6866C4.55778 15.6418 4.47765 15.5794 4.41219 15.5031C4.34673 15.4268 4.29729 15.3381 4.2668 15.2423C4.23632 15.1465 4.2254 15.0455 4.23471 14.9454C4.24403 14.8453 4.27337 14.7481 4.32101 14.6595C4.36864 14.571 4.4336 14.4929 4.51201 14.43L11.512 8.42999Z" fill="#19181D"/>
</svg>

