<svg width="24" height="24" viewBox="0 0 24 24" fill="none" xmlns="http://www.w3.org/2000/svg">
<path fill-rule="evenodd" clip-rule="evenodd" d="M16.5967 2.25C17.0107 2.25028 17.3467 2.58596 17.3467 3V3.71094C17.568 3.72859 17.7785 3.74947 17.9785 3.77637C19.067 3.92279 19.9571 4.23291 20.6602 4.93652C21.3628 5.63984 21.6728 6.52972 21.8193 7.61816C21.9629 8.68511 21.9619 10.0503 21.9619 11.7695V13.6152C21.9619 15.3342 21.9628 16.6996 21.8193 17.7666C21.6729 18.8551 21.3638 19.7462 20.6602 20.4492C19.9569 21.1518 19.0668 21.4609 17.9785 21.6074C16.9116 21.7511 15.5464 21.75 13.8271 21.75H10.1348C8.41562 21.75 7.05045 21.7519 5.9834 21.6084C4.8949 21.462 4.0048 21.1517 3.30176 20.4482C2.59905 19.7449 2.28914 18.855 2.14258 17.7666C1.99894 16.6997 2 15.3345 2 13.6152V11.7695C2 10.0505 1.99814 8.68518 2.1416 7.61816C2.288 6.52971 2.59832 5.63955 3.30176 4.93652C4.00508 4.2338 4.89493 3.9239 5.9834 3.77734C6.18368 3.75038 6.39456 3.72964 6.61621 3.71191V3C6.61621 2.58579 6.952 2.25 7.36621 2.25C7.78005 2.25044 8.11621 2.58606 8.11621 3V3.64746C8.72703 3.6364 9.39838 3.63477 10.1348 3.63477H13.8271C14.5639 3.63477 15.2356 3.63559 15.8467 3.64648V3C15.8467 2.58579 16.1825 2.25 16.5967 2.25ZM3.5127 9.75C3.5019 10.3377 3.5 11.0052 3.5 11.7695V13.6152C3.5 15.3766 3.50188 16.6228 3.62891 17.5664C3.75306 18.4884 3.98417 19.0102 4.36231 19.3887C4.74012 19.7667 5.26156 19.9981 6.18359 20.1221C7.12739 20.249 8.37339 20.25 10.1348 20.25H13.8271C15.5886 20.25 16.8347 20.2481 17.7783 20.1211C18.7001 19.9969 19.2212 19.7657 19.5996 19.3877C19.9777 19.0099 20.2089 18.4892 20.333 17.5674C20.4599 16.6236 20.4619 15.3768 20.4619 13.6152V11.7695C20.4619 11.0051 20.46 10.3376 20.4492 9.75H3.5127ZM10.1348 5.13477C8.37322 5.13477 7.1273 5.13662 6.18359 5.26367C5.26169 5.38779 4.74076 5.61905 4.36231 5.99707C3.98422 6.3749 3.75294 6.89617 3.62891 7.81836C3.61046 7.95561 3.59558 8.09932 3.58203 8.25H20.3799C20.3663 8.09932 20.3515 7.9556 20.333 7.81836C20.2089 6.89666 19.9775 6.37551 19.5996 5.99707C19.2218 5.61892 18.7006 5.38772 17.7783 5.26367C16.8345 5.13673 15.5887 5.13477 13.8271 5.13477H10.1348Z" fill="#19181D"/>
</svg>
