<svg width="24" height="24" viewBox="0 0 24 24" fill="none" xmlns="http://www.w3.org/2000/svg">
<path d="M10.5118 4.43086C10.8262 4.16136 11.2998 4.19758 11.5694 4.51191L17.5694 11.5119C17.8101 11.7928 17.8101 12.2076 17.5694 12.4885L11.5694 19.4885C11.2999 19.8028 10.8262 19.839 10.5118 19.5695C10.1975 19.2999 10.1612 18.8264 10.4307 18.5119L16.0118 12.0002L10.4307 5.48847C10.1612 5.17403 10.1975 4.70045 10.5118 4.43086Z" fill="#19181D"/>
<path opacity="0.5" d="M6.51174 4.43063C6.82618 4.16111 7.29977 4.19734 7.56936 4.51168L13.5694 11.5117C13.8101 11.7925 13.8101 12.2074 13.5694 12.4882L7.56936 19.4882C7.29978 19.8026 6.82618 19.8388 6.51174 19.5693C6.1974 19.2997 6.16117 18.8261 6.43069 18.5117L12.0117 12L6.43069 5.48824C6.16117 5.1738 6.1974 4.70022 6.51174 4.43063Z" fill="#19181D"/>
</svg>
