<svg width="22" height="22" viewBox="0 0 22 22" fill="none" xmlns="http://www.w3.org/2000/svg">
<path opacity="0.5" d="M15.75 7.75195C17.925 7.76395 19.103 7.86095 19.871 8.62895C20.75 9.50795 20.75 10.922 20.75 13.75V14.75C20.75 17.579 20.75 18.993 19.871 19.872C18.993 20.75 17.578 20.75 14.75 20.75H6.75C3.922 20.75 2.507 20.75 1.629 19.872C0.75 18.992 0.75 17.579 0.75 14.75V13.75C0.75 10.922 0.75 9.50795 1.629 8.62895C2.397 7.86095 3.575 7.76395 5.75 7.75195" stroke="#19181D" stroke-width="1.5" stroke-linecap="round"/>
<path d="M10.75 0.75V13.75M10.75 13.75L7.75 10.25M10.75 13.75L13.75 10.25" stroke="#19181D" stroke-width="1.5" stroke-linecap="round" stroke-linejoin="round"/>
</svg>
