<svg width="24" height="24" viewBox="0 0 24 24" fill="none" xmlns="http://www.w3.org/2000/svg">
<path opacity="0.5" d="M17.0039 8.25196C18.0855 8.25793 18.9871 8.28359 19.7236 8.41896C20.4816 8.55827 21.1267 8.82393 21.6514 9.34864C22.2533 9.95062 22.5127 10.7084 22.6338 11.6084C22.752 12.4869 22.75 13.6072 22.75 15V16C22.75 17.3933 22.7519 18.514 22.6338 19.3926C22.5127 20.2927 22.2533 21.0504 21.6514 21.6524C21.0497 22.2541 20.2916 22.5129 19.3916 22.6338C18.5131 22.7518 17.3928 22.75 16 22.75H8C6.6072 22.75 5.48693 22.7518 4.6084 22.6338C3.76448 22.5204 3.04534 22.2857 2.46289 21.7608L2.34863 21.6524C1.74695 21.05 1.4873 20.2919 1.36621 19.3916C1.24809 18.5132 1.25 17.3931 1.25 16V15C1.25 13.6072 1.24805 12.4869 1.36621 11.6084C1.48729 10.7084 1.74667 9.95062 2.34863 9.34864C2.87335 8.82393 3.51844 8.55827 4.27637 8.41896C5.0129 8.28359 5.91455 8.25793 6.9961 8.25196C7.41019 8.2498 7.74771 8.58393 7.75 8.99806C7.75216 9.41216 7.41804 9.74968 7.00391 9.75196C5.91089 9.758 5.13595 9.78649 4.54785 9.89454C3.98104 9.99873 3.65246 10.1659 3.40918 10.4092C3.13222 10.6862 2.95219 11.075 2.85352 11.8086C2.75193 12.5639 2.75 13.5648 2.75 15V16C2.75 17.4354 2.75199 18.4362 2.85352 19.1914C2.95214 19.9247 3.13204 20.3142 3.40918 20.5918L3.51856 20.6904C3.78798 20.9114 4.16549 21.0602 4.80762 21.1465C5.56308 21.248 6.56482 21.25 8 21.25H16C17.4352 21.25 18.4369 21.248 19.1924 21.1465C19.9261 21.0479 20.3146 20.868 20.5908 20.5918C20.8678 20.3149 21.0478 19.926 21.1465 19.1924C21.2481 18.437 21.25 17.4357 21.25 16V15C21.25 13.5648 21.2481 12.5639 21.1465 11.8086C21.0478 11.075 20.8678 10.6862 20.5908 10.4092C20.3475 10.1659 20.019 9.99873 19.4522 9.89454C18.8641 9.78649 18.0891 9.758 16.9961 9.75196C16.582 9.74968 16.2478 9.41216 16.25 8.99806C16.2523 8.58393 16.5898 8.24981 17.0039 8.25196Z" fill="#19181D"/>
<path d="M12 1.25C12.4142 1.25002 12.75 1.5858 12.75 2V12.9717L14.4307 11.0117C14.7003 10.6974 15.1739 10.6611 15.4883 10.9307C15.8026 11.2003 15.8389 11.6738 15.5694 11.9883L12.5694 15.4883C12.4269 15.6544 12.2189 15.75 12 15.75C11.7812 15.75 11.5732 15.6544 11.4307 15.4883L8.4307 11.9883C8.16118 11.6738 8.19741 11.2003 8.51176 10.9307C8.8262 10.6612 9.29979 10.6974 9.56938 11.0117L11.25 12.9717V2C11.25 1.58579 11.5858 1.25 12 1.25Z" fill="#19181D"/>
</svg>
