<svg width="17" height="17" viewBox="0 0 17 17" fill="none" xmlns="http://www.w3.org/2000/svg">
<path d="M13.6437 14.3309C13.3741 15.683 12.267 16.755 10.9076 16.9851C10.7133 17.0181 10.5164 16.986 10.3192 16.9857C9.94809 16.926 9.61225 16.7532 9.27512 16.6437C8.72013 16.462 8.12185 16.4645 7.56604 16.6437C7.22845 16.7517 6.83987 16.9347 6.52155 16.9857C6.32612 16.9852 6.13108 17.0079 5.93854 16.9745C4.5766 16.7394 3.47028 15.658 3.20871 14.3009C3.08872 13.6784 3.13666 13.0464 3.36055 12.4505C3.586 11.8504 4.34688 10.9501 4.34688 10.9501L5.35105 9.85407C5.35105 9.85407 7.07056 7.86301 8.44198 7.86629C9.81339 7.86956 11.5234 9.86853 11.5234 9.86853L12.4912 10.9501C12.4912 10.9501 13.2793 11.8734 13.5019 12.4749C13.7235 13.0734 13.768 13.7074 13.6437 14.3309Z" fill="#7E19DC"/>
<path d="M5.36104 0.0195261C4.43244 0.199092 3.91649 1.56922 4.20855 3.07983C4.5006 4.59043 5.49021 5.66943 6.41881 5.48986C7.34741 5.3103 7.86336 3.94017 7.5713 2.42956C7.27925 0.918958 6.28964 -0.16004 5.36104 0.0195261ZM0.74517 4.41941C-0.105294 4.8332 -0.249119 6.29019 0.424076 7.67368C1.09727 9.05717 2.33231 9.84333 3.18278 9.42954C4.03324 9.01575 4.17706 7.55877 3.50387 6.17527C2.83067 4.79178 1.59563 4.00563 0.74517 4.41941ZM9.13159 2.43327C8.8323 3.94245 9.34179 5.31502 10.2695 5.49902C11.1972 5.68301 12.1919 4.60868 12.4912 3.09949C12.7905 1.59031 12.281 0.217736 11.3533 0.0337432C10.4256 -0.150249 9.43088 0.924077 9.13159 2.43327ZM13.1812 6.19828C12.5015 7.5786 12.6384 9.03622 13.4868 9.45409C14.3353 9.87197 15.5742 9.09167 16.2539 7.71136C16.9335 6.33104 16.7967 4.87342 15.9482 4.45555C15.0997 4.03767 13.8609 4.81797 13.1812 6.19828Z" fill="#7E19DC"/>
</svg>
