<svg width="20" height="20" viewBox="0 0 20 20" fill="none" xmlns="http://www.w3.org/2000/svg">
<path fill-rule="evenodd" clip-rule="evenodd" d="M18.7834 9.80117C18.7834 9.12162 18.7224 8.46821 18.6091 7.84094H9.58337V11.5479H14.741C14.5188 12.7459 13.8436 13.7608 12.8286 14.4404V16.8449H15.9258C17.7379 15.1765 18.7834 12.7197 18.7834 9.80117Z" fill="#4285F4"/>
<path fill-rule="evenodd" clip-rule="evenodd" d="M9.5833 19.1666C12.1708 19.1666 14.3401 18.3084 15.9257 16.8448L12.8286 14.4402C11.9704 15.0152 10.8727 15.355 9.5833 15.355C7.08728 15.355 4.97459 13.6692 4.22099 11.4041H1.01929V13.887C2.59618 17.019 5.83709 19.1666 9.5833 19.1666Z" fill="#34A853"/>
<path fill-rule="evenodd" clip-rule="evenodd" d="M4.22102 11.4042C4.02936 10.8292 3.92045 10.215 3.92045 9.58333C3.92045 8.9517 4.02936 8.3375 4.22102 7.7625V5.27954H1.01932C0.370265 6.57329 0 8.03693 0 9.58333C0 11.1297 0.370265 12.5934 1.01932 13.8871L4.22102 11.4042Z" fill="#FBBC05"/>
<path fill-rule="evenodd" clip-rule="evenodd" d="M9.5833 3.81155C10.9903 3.81155 12.2536 4.29508 13.2467 5.2447L15.9954 2.49602C14.3358 0.949621 12.1664 0 9.5833 0C5.83709 0 2.59618 2.14754 1.01929 5.27955L4.22099 7.7625C4.97459 5.49735 7.08728 3.81155 9.5833 3.81155Z" fill="#EA4335"/>
</svg>
