<svg width="22" height="21" viewBox="0 0 22 21" fill="none" xmlns="http://www.w3.org/2000/svg">
<path opacity="0.5" d="M5.036 16.75C2.669 16.75 0.75 14.854 0.75 12.515C0.75 10.176 2.669 8.279 5.036 8.279C5.32067 8.27967 5.59733 8.30633 5.866 8.359M5.866 8.359C5.6316 7.73144 5.5117 7.06691 5.512 6.397C5.512 3.278 8.07 0.75 11.226 0.75C14.166 0.75 16.587 2.944 16.906 5.765M5.866 8.359C6.41922 8.46671 6.94588 8.68213 7.416 8.993M13.131 5.777C13.7436 5.56426 14.3875 5.45575 15.036 5.456C15.69 5.456 16.319 5.565 16.906 5.765M16.906 5.765C19.142 6.53 20.75 8.631 20.75 11.103C20.75 13.81 18.823 16.073 16.25 16.623" stroke="#19181D" stroke-width="1.5" stroke-linecap="round"/>
<path d="M10.75 13.75V19.75M10.75 13.75L12.75 15.75M10.75 13.75L8.75 15.75" stroke="#19181D" stroke-width="1.5" stroke-linecap="round" stroke-linejoin="round"/>
</svg>



