<svg width="24" height="24" viewBox="0 0 24 24" fill="none" xmlns="http://www.w3.org/2000/svg">
<path opacity="0.5" d="M12.4756 2.25C15.6334 2.25 18.2694 4.49348 18.8301 7.46973C21.1295 8.44517 22.7498 10.708 22.75 13.3525C22.75 16.4262 20.5631 18.9851 17.6572 19.6064C17.2522 19.693 16.8532 19.4344 16.7666 19.0293C16.6803 18.6245 16.9381 18.2264 17.3428 18.1396C19.5826 17.6609 21.25 15.6928 21.25 13.3525C21.2498 11.2159 19.8595 9.39054 17.9131 8.72461C17.4029 8.55094 16.8558 8.45607 16.2861 8.45605C15.7215 8.45584 15.1603 8.55012 14.627 8.73535C14.2358 8.87116 13.8089 8.66442 13.6729 8.27344C13.537 7.88219 13.7436 7.45429 14.1348 7.31836C14.8265 7.07812 15.5538 6.95579 16.2861 6.95605L16.5615 6.96191C16.7628 6.97031 16.9618 6.98838 17.1582 7.01465C16.4772 5.11688 14.642 3.75 12.4756 3.75C9.72563 3.75022 7.51172 5.95113 7.51172 8.64746C7.51153 9.09861 7.57487 9.54685 7.69824 9.97949C8.18744 10.1211 8.65383 10.3353 9.08008 10.6172C9.42528 10.8456 9.52002 11.3109 9.29199 11.6562C9.06352 12.0018 8.59746 12.0966 8.25195 11.8682C7.86394 11.6117 7.42921 11.4336 6.97266 11.3447C6.75279 11.3016 6.52287 11.2799 6.28418 11.2793C4.32408 11.2803 2.75019 12.8488 2.75 14.7646C2.75 16.681 4.32484 18.25 6.28613 18.25C6.70029 18.2501 7.03613 18.5858 7.03613 19C7.03613 19.4142 6.70029 19.7499 6.28613 19.75C3.51343 19.75 1.25 17.5263 1.25 14.7646C1.25019 12.0606 3.42035 9.87182 6.11426 9.78223C6.04646 9.40825 6.01155 9.02808 6.01172 8.64648C6.012 5.10533 8.9141 2.25022 12.4756 2.25Z" fill="#19181D"/>
<path d="M11.5264 15.4178C11.821 15.1776 12.2557 15.195 12.5303 15.4695L14.5303 17.4695C14.8232 17.7624 14.8231 18.2372 14.5303 18.5301C14.2374 18.823 13.7627 18.823 13.4698 18.5301L12.7501 17.8104V21.9998C12.7501 22.414 12.4142 22.7498 12.0001 22.7498C11.5858 22.7498 11.2501 22.414 11.2501 21.9998V17.8104L10.5303 18.5301C10.2374 18.823 9.76267 18.823 9.46978 18.5301C9.17691 18.2372 9.17689 17.7624 9.46978 17.4695L11.4698 15.4695L11.5264 15.4178Z" fill="#19181D"/>
</svg>
