<svg width="129" height="28" viewBox="0 0 129 28" fill="none" xmlns="http://www.w3.org/2000/svg">
<path d="M35.4023 1.4739C35.574 1.4739 35.9664 1.4739 36.5794 1.4739C37.217 1.44928 37.9404 1.43696 38.7497 1.43696C39.559 1.43696 40.3927 1.43696 41.251 1.43696C42.1338 1.41234 42.9186 1.40002 43.6052 1.40002C45.6896 1.40002 47.4798 1.72016 48.9757 2.36043C50.4961 2.97608 51.7468 3.8503 52.7277 4.98308C53.7086 6.11587 54.432 7.47029 54.8979 9.04635C55.3639 10.5978 55.5968 12.3093 55.5968 14.1808C55.5968 16.1016 55.3516 17.8255 54.8612 19.3523C54.3952 20.8791 53.6595 22.1842 52.6541 23.2678C51.6732 24.3267 50.4225 25.1393 48.9021 25.7057C47.3817 26.2721 45.5793 26.5553 43.4949 26.5553C42.7837 26.5553 42.1338 26.543 41.5453 26.5184C40.9567 26.5184 40.3559 26.5184 39.7429 26.5184C39.1298 26.5184 38.4799 26.5061 37.7933 26.4814C37.1067 26.4814 36.3097 26.4814 35.4023 26.4814V1.4739ZM43.3477 5.68492C42.9308 5.68492 42.612 5.69723 42.3913 5.72186C42.1706 5.72186 41.8641 5.72186 41.4717 5.72186V22.2335C41.7905 22.2581 42.0725 22.2704 42.3178 22.2704C42.563 22.2704 42.9063 22.2704 43.3477 22.2704C44.4267 22.2704 45.3218 22.0857 46.033 21.7163C46.7686 21.347 47.3572 20.8175 47.7986 20.128C48.24 19.4385 48.5588 18.6012 48.755 17.6161C48.9512 16.6065 49.0493 15.486 49.0493 14.2547C49.0493 8.54152 47.1487 5.68492 43.3477 5.68492Z" fill="url(#paint0_radial_2264_14343)"/>
<path d="M58.2902 17.5092C58.2902 15.8593 58.5232 14.4064 58.9891 13.1505C59.4796 11.8699 60.1417 10.811 60.9755 9.97372C61.8338 9.11182 62.827 8.45923 63.955 8.01597C65.0831 7.5727 66.3092 7.35107 67.6334 7.35107C68.786 7.35107 69.7669 7.49882 70.5761 7.79433C71.3854 8.06522 72.0475 8.45923 72.5625 8.97637C73.0775 9.46889 73.4576 10.0599 73.7028 10.7494C73.948 11.4143 74.0706 12.1408 74.0706 12.9288C74.0706 13.8154 73.8499 14.6526 73.4085 15.4407C72.9671 16.2287 72.3295 16.9305 71.4958 17.5462C70.6865 18.1372 69.6933 18.6297 68.5162 19.0237C67.3637 19.4177 66.0517 19.6763 64.5803 19.7994C64.752 20.5382 65.0585 21.1415 65.4999 21.6094C65.9659 22.0527 66.6648 22.2743 67.5966 22.2743C68.1361 22.2743 68.7124 22.2128 69.3255 22.0896C69.9386 21.9665 70.5026 21.8311 71.0176 21.6833C71.6306 21.5109 72.2314 21.3139 72.82 21.0923L73.9235 24.9339C73.2614 25.2541 72.538 25.5373 71.7532 25.7835C71.0911 25.9805 70.3187 26.1652 69.4358 26.3376C68.5775 26.51 67.6579 26.5962 66.677 26.5962C65.1811 26.5962 63.8937 26.3745 62.8147 25.9313C61.7602 25.488 60.8897 24.8724 60.203 24.0843C59.5409 23.2963 59.0505 22.3482 58.7317 21.24C58.4374 20.1073 58.2902 18.8636 58.2902 17.5092ZM66.8977 11.5251C66.4318 11.5251 66.0272 11.6606 65.6839 11.9315C65.3651 12.2024 65.1076 12.5594 64.9114 13.0027C64.7152 13.446 64.5681 13.9385 64.47 14.4802C64.3719 15.022 64.3106 15.5515 64.2861 16.0686C65.0217 16.044 65.6348 15.9332 66.1253 15.7362C66.6402 15.5392 67.0571 15.2929 67.3759 14.9974C67.6947 14.7019 67.9277 14.3817 68.0748 14.037C68.222 13.6922 68.2955 13.3721 68.2955 13.0766C68.2955 12.6087 68.1607 12.2393 67.8909 11.9684C67.6457 11.6729 67.3146 11.5251 66.8977 11.5251Z" fill="url(#paint1_radial_2264_14343)"/>
<path d="M118.371 1.40002H124.44V26.4076H118.371V1.40002Z" fill="url(#paint2_radial_2264_14343)"/>
<path d="M115.62 1.40002L114.848 5.86961H109.11V26.4076H103.04V5.86961H97.1179V1.40002H115.62Z" fill="url(#paint3_radial_2264_14343)"/>
<path d="M94.4028 8.21482C94.445 8.64265 94.4551 9.33083 94.4287 10.275C94.4023 11.2194 94.321 12.1977 94.1872 13.2049C93.8304 15.891 93.3195 18.1469 92.6566 19.9706C92.0211 21.772 91.2245 23.2094 90.2657 24.2773C89.3105 25.3189 88.1767 26.0192 86.8671 26.3756C86.7908 26.3954 86.7113 26.408 86.6336 26.4257C86.2901 26.5039 85.9327 26.5629 85.562 26.6C85.1905 26.5628 84.8323 26.5042 84.4883 26.4257C84.4117 26.4082 84.334 26.3952 84.2588 26.3756C82.9492 26.0192 81.8154 25.3189 80.8602 24.2773C79.9014 23.2094 79.1028 21.772 78.4674 19.9706C77.8045 18.147 77.2954 15.8908 76.9387 13.2049C76.8049 12.1977 76.7236 11.2194 76.6972 10.275C76.6708 9.33088 76.679 8.64265 76.7212 8.21482L82.4747 7.35107C82.4705 7.87862 82.4765 8.57648 82.4926 9.4433C82.4811 10.288 82.5627 11.3568 82.7341 12.6478C82.8919 13.8356 83.1122 15.0296 83.3947 16.225C83.6496 17.3984 83.9636 18.4605 84.3366 19.4055C84.5956 20.0974 84.8911 20.6883 85.2207 21.177L85.562 21.632C86.0325 21.0705 86.444 20.328 86.7893 19.4055C87.1623 18.4605 87.4764 17.3984 87.7312 16.225C88.0137 15.0296 88.234 13.8357 88.3918 12.6478C88.5632 11.3568 88.6428 10.288 88.6313 9.4433C88.6474 8.57646 88.6535 7.87863 88.6493 7.35107L94.4028 8.21482Z" fill="url(#paint4_radial_2264_14343)"/>
<path d="M7.60547 26.3667C6.5009 26.3667 5.60547 25.4713 5.60547 24.3667V15.1737C5.60547 14.4837 6.16487 13.9242 6.85493 13.9242C7.54499 13.9242 8.10439 14.4837 8.10439 15.1737V21.8467C8.10439 22.9513 8.99982 23.8467 10.1044 23.8467H14.8506C15.9552 23.8467 16.8506 22.9513 16.8506 21.8467V18.5908C16.8506 18.0632 17.059 17.5571 17.4305 17.1825L20.1305 14.4597C20.7344 13.8507 21.2029 13.1682 21.5361 12.4122C21.8693 11.6562 22.0359 10.8477 22.0359 9.98675C22.0359 9.14675 21.8639 8.34875 21.5199 7.59275C21.1758 6.83675 20.7127 6.15425 20.1305 5.54525C19.7028 5.09668 18.9891 5.08969 18.5527 5.52978L15.9693 8.13501C15.5938 8.51372 15.0825 8.72675 14.5492 8.72675H10.9459C10.5867 8.72675 10.2424 8.87021 9.98948 9.12526L9.92349 9.19181C9.43631 9.6831 8.64316 9.68661 8.15165 9.19965C7.65983 8.71238 7.65631 7.91861 8.14381 7.427L8.76707 6.79849C9.14261 6.41977 9.65386 6.20675 10.1872 6.20675H13.5184C14.0517 6.20675 14.5629 5.99372 14.9385 5.61501L17.9294 2.59887C18.7118 1.80988 19.9873 1.80988 20.7697 2.59887L21.9109 3.74975C22.7439 4.58975 23.3895 5.54021 23.8476 6.60113C24.3057 7.66205 24.5348 8.79059 24.5348 9.98675C24.5348 11.1829 24.3057 12.3119 23.8476 13.3736C23.3895 14.4354 22.7439 15.3854 21.9109 16.2237L19.9294 18.222C19.558 18.5966 19.3496 19.1027 19.3496 19.6303V24.3667C19.3496 25.4713 18.4541 26.3667 17.3496 26.3667H7.60547Z" fill="#7E19DC"/>
<path d="M11.7524 18.3839C11.3856 18.7152 11.0642 18.9215 10.7881 19.0027C10.5156 19.0807 10.2505 19.0454 9.9928 18.8967C9.73864 18.7448 9.45372 18.4947 9.13803 18.1462L4.79888 13.3567C4.47675 13.0012 4.25432 12.6913 4.13158 12.4272C4.00918 12.1563 4.00209 11.8912 4.1103 11.6318C4.21885 11.3657 4.45652 11.067 4.82332 10.7357L6.46324 9.25459C7.22889 8.56307 8.00148 8.07218 8.78099 7.78191C9.56407 7.48842 10.3623 7.46895 11.1757 7.7235C11.9858 7.97449 12.8193 8.57288 13.6762 9.51869C14.5331 10.4645 15.0622 11.3701 15.2635 12.2356C15.4617 13.0976 15.3899 13.9188 15.0481 14.6994C14.7099 15.4768 14.158 16.2113 13.3923 16.9028L11.7524 18.3839ZM7.10907 11.2218C6.87404 11.434 6.75888 11.6286 6.76361 11.8053C6.76834 11.9821 6.88023 12.1913 7.09928 12.4331L10.2884 15.9532C10.5042 16.1914 10.7016 16.3235 10.8805 16.3494C11.0594 16.3753 11.2663 16.2822 11.5014 16.0699L11.7471 15.848C12.5092 15.1597 12.9294 14.4407 13.0079 13.691C13.0898 12.9382 12.7137 12.1013 11.8793 11.1804C11.322 10.5652 10.7942 10.1756 10.2959 10.0115C9.7979 9.84063 9.30786 9.85006 8.82577 10.0398C8.34369 10.2295 7.8498 10.5528 7.34411 11.0095L7.10907 11.2218Z" fill="#973EE9"/>
<defs>
<radialGradient id="paint0_radial_2264_14343" cx="0" cy="0" r="1" gradientUnits="userSpaceOnUse" gradientTransform="translate(85.8806 26.6) scale(39.2609 17.7014)">
<stop stop-color="#66D7BC"/>
<stop offset="1" stop-color="#973EE9"/>
</radialGradient>
<radialGradient id="paint1_radial_2264_14343" cx="0" cy="0" r="1" gradientUnits="userSpaceOnUse" gradientTransform="translate(85.8806 26.6) scale(39.2609 17.7014)">
<stop stop-color="#66D7BC"/>
<stop offset="1" stop-color="#973EE9"/>
</radialGradient>
<radialGradient id="paint2_radial_2264_14343" cx="0" cy="0" r="1" gradientUnits="userSpaceOnUse" gradientTransform="translate(85.8806 26.6) scale(39.2609 17.7014)">
<stop stop-color="#66D7BC"/>
<stop offset="1" stop-color="#973EE9"/>
</radialGradient>
<radialGradient id="paint3_radial_2264_14343" cx="0" cy="0" r="1" gradientUnits="userSpaceOnUse" gradientTransform="translate(85.8806 26.6) scale(39.2609 17.7014)">
<stop stop-color="#66D7BC"/>
<stop offset="1" stop-color="#973EE9"/>
</radialGradient>
<radialGradient id="paint4_radial_2264_14343" cx="0" cy="0" r="1" gradientUnits="userSpaceOnUse" gradientTransform="translate(85.8806 26.6) scale(39.2609 17.7014)">
<stop stop-color="#66D7BC"/>
<stop offset="1" stop-color="#973EE9"/>
</radialGradient>
</defs>
</svg>



