<svg width="90" height="26" viewBox="0 0 90 26" fill="none" xmlns="http://www.w3.org/2000/svg">
<path d="M4.17871 1.36865C4.33611 1.36865 4.69589 1.36865 5.25804 1.36865C5.84267 1.34578 6.50601 1.33435 7.24805 1.33435C7.99009 1.33435 8.75461 1.33435 9.54162 1.33435C10.3511 1.31148 11.0707 1.30005 11.7003 1.30005C13.6116 1.30005 15.2531 1.59732 16.6247 2.19185C18.0188 2.76353 19.1656 3.5753 20.0651 4.62718C20.9645 5.67905 21.6278 6.93673 22.0551 8.40021C22.4823 9.84082 22.6959 11.4301 22.6959 13.1679C22.6959 14.9516 22.4711 16.5522 22.0213 17.97C21.5941 19.3877 20.9195 20.5997 19.9976 21.6058C19.0982 22.5891 17.9514 23.3437 16.5572 23.8696C15.1631 24.3956 13.5104 24.6585 11.5991 24.6585C10.947 24.6585 10.3511 24.6471 9.81145 24.6242C9.27179 24.6242 8.72088 24.6242 8.15873 24.6242C7.59658 24.6242 7.0007 24.6128 6.37109 24.5899C5.74149 24.5899 5.01069 24.5899 4.17871 24.5899V1.36865ZM11.4642 5.27888C11.0819 5.27888 10.7896 5.29031 10.5872 5.31318C10.3848 5.31318 10.1038 5.31318 9.74399 5.31318V20.6454C10.0363 20.6683 10.2949 20.6797 10.5198 20.6797C10.7446 20.6797 11.0594 20.6797 11.4642 20.6797C12.4536 20.6797 13.2743 20.5082 13.9264 20.1652C14.601 19.8222 15.1406 19.3306 15.5454 18.6903C15.9501 18.05 16.2424 17.2725 16.4223 16.3579C16.6022 15.4203 16.6922 14.3799 16.6922 13.2365C16.6922 7.93144 14.9495 5.27888 11.4642 5.27888Z" fill="url(#paint0_radial_2026_2193)"/>
<path d="M25.1656 16.2586C25.1656 14.7265 25.3792 13.3774 25.8065 12.2112C26.2562 11.0221 26.8633 10.0388 27.6278 9.26134C28.4149 8.461 29.3255 7.85503 30.3599 7.44342C31.3942 7.03182 32.5185 6.82602 33.7328 6.82602C34.7896 6.82602 35.6891 6.96322 36.4311 7.23762C37.1731 7.48916 37.7803 7.85503 38.2525 8.33523C38.7247 8.79257 39.0732 9.34137 39.2981 9.98164C39.5229 10.599 39.6354 11.2736 39.6354 12.0054C39.6354 12.8286 39.433 13.606 39.0282 14.3378C38.6235 15.0695 38.0389 15.7212 37.2743 16.2929C36.5323 16.8417 35.6216 17.299 34.5423 17.6649C33.4854 18.0308 32.2824 18.2709 30.9333 18.3852C31.0907 19.0712 31.3718 19.6315 31.7765 20.0659C32.2037 20.4775 32.8446 20.6833 33.6991 20.6833C34.1937 20.6833 34.7222 20.6262 35.2843 20.5118C35.8465 20.3975 36.3636 20.2717 36.8359 20.1345C37.398 19.9745 37.9489 19.7915 38.4886 19.5857L39.5004 23.1529C38.8933 23.4502 38.23 23.7132 37.5104 23.9419C36.9033 24.1248 36.195 24.2963 35.3855 24.4564C34.5985 24.6164 33.7553 24.6965 32.8558 24.6965C31.4842 24.6965 30.3037 24.4907 29.3143 24.0791C28.3474 23.6675 27.5491 23.0958 26.9195 22.364C26.3124 21.6323 25.8627 20.7519 25.5704 19.7229C25.3005 18.671 25.1656 17.5163 25.1656 16.2586ZM33.0582 10.7019C32.631 10.7019 32.26 10.8277 31.9452 11.0793C31.6528 11.3308 31.4167 11.6624 31.2368 12.074C31.057 12.4856 30.922 12.9429 30.8321 13.446C30.7422 13.949 30.6859 14.4407 30.6635 14.9209C31.338 14.898 31.9002 14.7951 32.3499 14.6122C32.8221 14.4292 33.2044 14.2006 33.4967 13.9262C33.789 13.6518 34.0026 13.3545 34.1375 13.0344C34.2725 12.7142 34.3399 12.417 34.3399 12.1426C34.3399 11.7081 34.2162 11.3651 33.9689 11.1136C33.744 10.8392 33.4405 10.7019 33.0582 10.7019Z" fill="url(#paint1_radial_2026_2193)"/>
<path d="M80.2563 1.30005H85.8216V24.5213H80.2563V1.30005Z" fill="url(#paint2_radial_2026_2193)"/>
<path d="M77.7341 1.30005L77.0258 5.45038H71.7641V24.5213H66.1988V5.45038H60.7684V1.30005H77.7341Z" fill="url(#paint3_radial_2026_2193)"/>
<path d="M58.2788 7.62807C58.3175 8.02535 58.3267 8.66437 58.3026 9.54108C58.2783 10.418 58.2038 11.3264 58.0811 12.2617C57.754 14.756 57.2855 16.8507 56.6776 18.5442C56.0949 20.2169 55.3645 21.5516 54.4854 22.5433C53.6094 23.5104 52.5698 24.1607 51.369 24.4916C51.2991 24.51 51.2261 24.5217 51.1549 24.5381C50.8399 24.6108 50.5122 24.6656 50.1722 24.7C49.8317 24.6655 49.5032 24.6111 49.1878 24.5381C49.1175 24.5219 49.0463 24.5098 48.9773 24.4916C47.7765 24.1607 46.7369 23.5104 45.861 22.5433C44.9818 21.5516 44.2495 20.2169 43.6669 18.5442C43.0591 16.8508 42.5923 14.7558 42.2652 12.2617C42.1425 11.3264 42.068 10.418 42.0438 9.54108C42.0196 8.66441 42.027 8.02535 42.0657 7.62807L47.3414 6.82602C47.3375 7.31589 47.3431 7.9639 47.3578 8.76881C47.3473 9.55317 47.4221 10.5456 47.5793 11.7444C47.7239 12.8474 47.926 13.9561 48.185 15.0661C48.4187 16.1557 48.7066 17.1419 49.0487 18.0194C49.2862 18.6619 49.5571 19.2106 49.8593 19.6644L50.1722 20.0869C50.6037 19.5655 50.981 18.876 51.2976 18.0194C51.6397 17.1419 51.9277 16.1557 52.1614 15.0661C52.4204 13.9561 52.6224 12.8474 52.7671 11.7444C52.9242 10.5457 52.9972 9.55315 52.9867 8.76881C53.0014 7.96388 53.007 7.3159 53.0031 6.82602L58.2788 7.62807Z" fill="url(#paint4_radial_2026_2193)"/>
<defs>
<radialGradient id="paint0_radial_2026_2193" cx="0" cy="0" r="1" gradientUnits="userSpaceOnUse" gradientTransform="translate(50.4644 24.7) scale(36 16.437)">
<stop stop-color="#66D7BC"/>
<stop offset="1" stop-color="#973EE9"/>
</radialGradient>
<radialGradient id="paint1_radial_2026_2193" cx="0" cy="0" r="1" gradientUnits="userSpaceOnUse" gradientTransform="translate(50.4644 24.7) scale(36 16.437)">
<stop stop-color="#66D7BC"/>
<stop offset="1" stop-color="#973EE9"/>
</radialGradient>
<radialGradient id="paint2_radial_2026_2193" cx="0" cy="0" r="1" gradientUnits="userSpaceOnUse" gradientTransform="translate(50.4644 24.7) scale(36 16.437)">
<stop stop-color="#66D7BC"/>
<stop offset="1" stop-color="#973EE9"/>
</radialGradient>
<radialGradient id="paint3_radial_2026_2193" cx="0" cy="0" r="1" gradientUnits="userSpaceOnUse" gradientTransform="translate(50.4644 24.7) scale(36 16.437)">
<stop stop-color="#66D7BC"/>
<stop offset="1" stop-color="#973EE9"/>
</radialGradient>
<radialGradient id="paint4_radial_2026_2193" cx="0" cy="0" r="1" gradientUnits="userSpaceOnUse" gradientTransform="translate(50.4644 24.7) scale(36 16.437)">
<stop stop-color="#66D7BC"/>
<stop offset="1" stop-color="#973EE9"/>
</radialGradient>
</defs>
</svg>
