<svg width="24" height="24" viewBox="0 0 24 24" fill="none" xmlns="http://www.w3.org/2000/svg">
<path d="M9.15301 5.408C10.42 3.136 11.053 2 12 2C12.947 2 13.58 3.136 14.847 5.408L15.175 5.996C15.535 6.642 15.715 6.965 15.995 7.178C16.275 7.391 16.625 7.47 17.325 7.628L17.961 7.772C20.421 8.329 21.65 8.607 21.943 9.548C22.235 10.488 21.397 11.469 19.72 13.43L19.286 13.937C18.81 14.494 18.571 14.773 18.464 15.117C18.357 15.462 18.393 15.834 18.465 16.577L18.531 17.254C18.784 19.871 18.911 21.179 18.145 21.76C17.379 22.341 16.227 21.811 13.925 20.751L13.328 20.477C12.674 20.175 12.347 20.025 12 20.025C11.653 20.025 11.326 20.175 10.672 20.477L10.076 20.751C7.77301 21.811 6.62101 22.341 5.85601 21.761C5.08901 21.179 5.21601 19.871 5.46901 17.254L5.53501 16.578C5.60701 15.834 5.64301 15.462 5.53501 15.118C5.42901 14.773 5.19001 14.494 4.71401 13.938L4.28001 13.43C2.60301 11.47 1.76501 10.489 2.05701 9.548C2.34901 8.607 3.58001 8.328 6.04001 7.772L6.67601 7.628C7.37501 7.47 7.72401 7.391 8.00501 7.178C8.28601 6.965 8.46501 6.642 8.82501 5.996L9.15301 5.408Z" fill="#F5EEFB"/>
<path d="M12.0004 20.0254C11.6535 20.0254 11.326 20.1747 10.6723 20.4766L10.0756 20.751C7.77282 21.8109 6.62085 22.3407 5.85588 21.7607C5.08911 21.1787 5.21619 19.8707 5.46916 17.2539L5.53459 16.5781C5.60659 15.8341 5.64258 15.4622 5.53459 15.1182C5.42862 14.7732 5.19005 14.4942 4.71428 13.9385L4.27971 13.4297C2.6029 11.4699 1.76507 10.4888 2.05705 9.54785C2.34914 8.60697 3.58058 8.32843 6.04045 7.77246L6.6762 7.62793C7.37507 7.46996 7.72432 7.39071 8.0053 7.17773C8.28608 6.96476 8.46485 6.6417 8.82463 5.99609L9.15276 5.4082C10.4198 3.1362 11.0534 2 12.0004 2V20.0254Z" fill="#7E19DC"/>
</svg>

