<svg width="24" height="24" viewBox="0 0 24 24" fill="none" xmlns="http://www.w3.org/2000/svg">
<path fill-rule="evenodd" clip-rule="evenodd" d="M11.292 3.308C10.898 3.822 10.454 4.616 9.80799 5.774L9.48099 6.361L9.42199 6.467C9.12199 7.007 8.86699 7.465 8.45799 7.775C8.04499 8.089 7.54099 8.202 6.95499 8.334L6.84099 8.36L6.20499 8.504C4.94999 8.788 4.09499 8.983 3.51099 9.214C2.93999 9.438 2.81999 9.623 2.77399 9.77C2.72499 9.926 2.72399 10.165 3.06399 10.707C3.41099 11.257 3.99599 11.943 4.84999 12.943L5.28399 13.45L5.35899 13.537C5.76199 14.007 6.09799 14.399 6.25199 14.895C6.40499 15.388 6.35399 15.905 6.29199 16.533L6.28199 16.65L6.21599 17.327C6.08599 18.659 5.99999 19.577 6.02899 20.237C6.05899 20.897 6.19799 21.079 6.30899 21.163C6.40699 21.238 6.58899 21.32 7.18199 21.15C7.78499 20.978 8.58699 20.611 9.76199 20.07L10.358 19.796L10.467 19.746C11.012 19.493 11.484 19.275 12 19.275C12.516 19.275 12.988 19.493 13.533 19.745C13.5683 19.7623 13.605 19.779 13.643 19.795L14.238 20.07C15.413 20.611 16.215 20.978 16.818 21.15C17.411 21.32 17.593 21.238 17.691 21.163C17.802 21.079 17.941 20.896 17.971 20.237C18.001 19.577 17.913 18.659 17.784 17.327L17.718 16.65L17.708 16.533C17.646 15.905 17.595 15.388 17.748 14.895C17.902 14.399 18.238 14.007 18.641 13.537L18.716 13.45L19.15 12.943C20.004 11.943 20.589 11.257 20.935 10.707C21.276 10.165 21.275 9.927 21.226 9.77C21.18 9.623 21.06 9.438 20.489 9.214C19.904 8.983 19.05 8.788 17.795 8.504L17.159 8.36L17.045 8.334C16.459 8.202 15.955 8.089 15.542 7.775C15.132 7.465 14.879 7.008 14.578 6.467L14.52 6.361L14.192 5.774C13.546 4.616 13.102 3.822 12.708 3.308C12.314 2.794 12.114 2.75 12 2.75C11.886 2.75 11.685 2.794 11.292 3.308ZM10.102 2.396C10.577 1.774 11.166 1.25 12 1.25C12.834 1.25 13.422 1.774 13.899 2.396C14.367 3.008 14.864 3.899 15.471 4.988L15.83 5.631C16.222 6.335 16.323 6.485 16.449 6.581C16.569 6.672 16.726 6.724 17.489 6.897L18.189 7.055C19.365 7.321 20.334 7.54 21.039 7.818C21.771 8.107 22.412 8.532 22.659 9.325C22.903 10.11 22.629 10.832 22.205 11.505C21.793 12.16 21.135 12.93 20.331 13.87L19.856 14.425C19.339 15.029 19.231 15.177 19.18 15.34C19.129 15.507 19.133 15.7 19.212 16.505L19.283 17.243C19.405 18.499 19.504 19.523 19.469 20.303C19.434 21.098 19.254 21.86 18.599 22.358C17.931 22.864 17.154 22.808 16.404 22.592C15.677 22.384 14.771 21.967 13.671 21.46L13.015 21.158C12.297 20.828 12.144 20.775 12 20.775C11.856 20.775 11.703 20.828 10.985 21.158L10.33 21.46C9.22899 21.967 8.32299 22.384 7.59599 22.592C6.84599 22.807 6.06899 22.864 5.40199 22.358C4.74599 21.86 4.56599 21.098 4.53099 20.304C4.49599 19.524 4.59499 18.499 4.71699 17.244L4.78899 16.505C4.86699 15.699 4.87099 15.507 4.81899 15.34C4.76899 15.177 4.66099 15.03 4.14399 14.425L3.66899 13.87C2.86599 12.93 2.20799 12.16 1.79599 11.506C1.37099 10.832 1.09699 10.11 1.34099 9.325C1.58799 8.532 2.22899 8.107 2.96099 7.818C3.66599 7.54 4.63499 7.321 5.81099 7.055L5.87399 7.041L6.50999 6.897C7.27399 6.724 7.42999 6.672 7.55099 6.58C7.67699 6.485 7.77799 6.335 8.17099 5.631L8.52899 4.988C9.13599 3.898 9.63299 3.008 10.101 2.396" fill="#19181D"/>
</svg>

