<svg width="24" height="24" viewBox="0 0 24 24" fill="none" xmlns="http://www.w3.org/2000/svg">
<path opacity="0.5" d="M6.286 19C3.919 19 2 17.104 2 14.765C2 12.426 3.919 10.529 6.286 10.529C6.57067 10.5297 6.84733 10.5563 7.116 10.609M7.116 10.609C6.8816 9.98144 6.7617 9.31691 6.762 8.647C6.762 5.528 9.32 3 12.476 3C15.416 3 17.837 5.194 18.156 8.015M7.116 10.609C7.66922 10.7167 8.19588 10.9321 8.666 11.243M14.381 8.027C14.9936 7.81426 15.6375 7.70575 16.286 7.706C16.94 7.706 17.569 7.815 18.156 8.015M18.156 8.015C20.392 8.78 22 10.881 22 13.353C22 16.06 20.073 18.323 17.5 18.873" stroke="#19181D" stroke-width="1.5" stroke-linecap="round"/>
<path d="M12 16V22M12 16L14 18M12 16L10 18" stroke="#19181D" stroke-width="1.5" stroke-linecap="round" stroke-linejoin="round"/>
</svg>
