<svg width="14" height="14" viewBox="0 0 17 17" fill="none" xmlns="http://www.w3.org/2000/svg">
<path d="M15.2197 0.21967C15.5126 -0.0732233 15.9873 -0.0732233 16.2802 0.21967C16.5731 0.512568 16.5731 0.987342 16.2802 1.28022L9.31049 8.24994L16.2802 15.2197C16.5731 15.5126 16.5731 15.9873 16.2802 16.2802C15.9873 16.5731 15.5126 16.5731 15.2197 16.2802L8.24994 9.31049L1.28022 16.2802C0.987342 16.5731 0.512568 16.5731 0.21967 16.2802C-0.0732233 15.9873 -0.0732233 15.5126 0.21967 15.2197L7.1894 8.24994L0.21967 1.28022C-0.0732233 0.987324 -0.0732233 0.512563 0.21967 0.21967C0.512563 -0.0732233 0.987324 -0.0732233 1.28022 0.21967L8.24994 7.1894L15.2197 0.21967Z" fill="#D0D2DC"/>
</svg>
