<svg width="14" height="14" viewBox="0 0 14 14" fill="none" xmlns="http://www.w3.org/2000/svg">
<path d="M12.6831 0.183058C12.9271 -0.0610194 13.3228 -0.0610194 13.5668 0.183058C13.8109 0.42714 13.8109 0.822785 13.5668 1.06685L7.75874 6.87495L13.5668 12.6831C13.8109 12.9271 13.8109 13.3228 13.5668 13.5668C13.3228 13.8109 12.9271 13.8109 12.6831 13.5668L6.87495 7.75874L1.06685 13.5668C0.822785 13.8109 0.42714 13.8109 0.183058 13.5668C-0.0610194 13.3228 -0.0610194 12.9271 0.183058 12.6831L5.99116 6.87495L0.183058 1.06685C-0.0610194 0.82277 -0.0610194 0.427136 0.183058 0.183058C0.427136 -0.0610194 0.82277 -0.0610194 1.06685 0.183058L6.87495 5.99116L12.6831 0.183058Z" fill="#FCFCFF"/>
</svg>
