<svg xmlns="http://www.w3.org/2000/svg" width="29" height="28" viewBox="0 0 29 28" fill="none">
  <path d="M7.60877 26.3667C6.5042 26.3667 5.60876 25.4713 5.60876 24.3667V15.1737C5.60876 14.4837 6.16817 13.9242 6.85823 13.9242C7.54829 13.9242 8.10769 14.4837 8.10769 15.1737V21.8467C8.10769 22.9513 9.00312 23.8467 10.1077 23.8467H14.8539C15.9585 23.8467 16.8539 22.9513 16.8539 21.8467V18.5908C16.8539 18.0632 17.0623 17.5571 17.4338 17.1825L20.1338 14.4597C20.7377 13.8507 21.2062 13.1682 21.5394 12.4122C21.8726 11.6562 22.0392 10.8477 22.0392 9.98675C22.0392 9.14675 21.8672 8.34875 21.5232 7.59275C21.1791 6.83675 20.716 6.15425 20.1338 5.54525C19.7061 5.09668 18.9924 5.08969 18.556 5.52978L15.9726 8.13501C15.597 8.51372 15.0858 8.72675 14.5525 8.72675H10.9492C10.59 8.72675 10.2457 8.87021 9.99277 9.12526L9.92679 9.19181C9.43961 9.6831 8.64645 9.68661 8.15494 9.19965C7.66312 8.71238 7.65961 7.91861 8.1471 7.427L8.77036 6.79849C9.14591 6.41977 9.65716 6.20675 10.1905 6.20675H13.5216C14.055 6.20675 14.5662 5.99372 14.9418 5.61501L17.9327 2.59887C18.7151 1.80988 19.9906 1.80988 20.773 2.59887L21.9142 3.74975C22.7472 4.58975 23.3928 5.54021 23.8509 6.60113C24.309 7.66205 24.5381 8.79059 24.5381 9.98675C24.5381 11.1829 24.309 12.3119 23.8509 13.3736C23.3928 14.4354 22.7472 15.3854 21.9142 16.2237L19.9327 18.222C19.5613 18.5966 19.3528 19.1027 19.3528 19.6303V24.3667C19.3528 25.4713 18.4574 26.3667 17.3528 26.3667H7.60877Z" fill="#7E19DC"/>
  <path d="M11.754 18.3839C11.3872 18.7152 11.0658 18.9215 10.7897 19.0027C10.5172 19.0807 10.2521 19.0454 9.99439 18.8967C9.74023 18.7448 9.45531 18.4947 9.13961 18.1462L4.80047 13.3567C4.47834 13.0012 4.2559 12.6913 4.13317 12.4272C4.01077 12.1563 4.00368 11.8912 4.11188 11.6318C4.22043 11.3657 4.45811 11.067 4.82491 10.7357L6.46483 9.25459C7.23048 8.56307 8.00306 8.07218 8.78258 7.78191C9.56565 7.48842 10.3639 7.46895 11.1772 7.7235C11.9874 7.97449 12.8209 8.57288 13.6778 9.51869C14.5347 10.4645 15.0638 11.3701 15.2651 12.2356C15.4633 13.0976 15.3914 13.9188 15.0497 14.6994C14.7115 15.4768 14.1596 16.2113 13.3939 16.9028L11.754 18.3839ZM7.11066 11.2218C6.87562 11.434 6.76047 11.6286 6.7652 11.8053C6.76993 11.9821 6.88182 12.1913 7.10087 12.4331L10.29 15.9532C10.5058 16.1914 10.7032 16.3235 10.8821 16.3494C11.061 16.3753 11.2679 16.2822 11.503 16.0699L11.7487 15.848C12.5108 15.1597 12.931 14.4407 13.0094 13.691C13.0914 12.9382 12.7152 12.1013 11.8809 11.1804C11.3236 10.5652 10.7958 10.1756 10.2975 10.0115C9.79949 9.84063 9.30945 9.85006 8.82736 10.0398C8.34527 10.2295 7.85138 10.5528 7.3457 11.0095L7.11066 11.2218Z" fill="#973EE9"/>
</svg>