<svg width="18" height="20" viewBox="0 0 18 20" fill="none" xmlns="http://www.w3.org/2000/svg">
<path fill-rule="evenodd" clip-rule="evenodd" d="M12.4443 2.70117C13.2947 2.70575 14.0147 2.72533 14.6123 2.80567C15.4305 2.91572 16.1318 3.15279 16.6895 3.71094L16.79 3.81738C17.2763 4.35688 17.4916 5.02103 17.5947 5.78809C17.7018 6.58489 17.7002 7.59956 17.7002 8.85059V13.3506C17.7002 14.6017 17.7019 15.6163 17.5947 16.4131C17.4915 17.1802 17.2766 17.8443 16.79 18.3838L16.6895 18.4893C16.1318 19.0475 15.4305 19.2845 14.6123 19.3945C13.8155 19.5016 12.8009 19.5 11.5498 19.5H8.85059C7.59952 19.5 6.5849 19.5016 5.78809 19.3945C5.02098 19.2914 4.3569 19.0762 3.81738 18.5898L3.71094 18.4893C3.15295 17.9317 2.91574 17.2311 2.80567 16.4131C2.72528 15.8154 2.70575 15.0948 2.70117 14.2441L2.7002 13.3506V8.85059C2.7002 7.59953 2.69858 6.5849 2.80567 5.78809C2.91571 4.96983 3.15277 4.26866 3.71094 3.71094L3.81738 3.61035C4.35692 3.12394 5.02092 2.90884 5.78809 2.80567C6.58491 2.69857 7.5995 2.7002 8.85059 2.7002H11.5498L12.4443 2.70117ZM8.85059 4.2002C7.55688 4.2002 6.66098 4.20141 5.98731 4.29199C5.41686 4.36873 5.09222 4.50013 4.86426 4.6875L4.77149 4.77149C4.53884 5.00388 4.3797 5.3353 4.29199 5.98731C4.20142 6.66097 4.2002 7.55692 4.2002 8.85059V13.3506L4.20215 14.249C4.20685 15.0778 4.22406 15.7078 4.29199 16.2129C4.37971 16.8649 4.53883 17.1963 4.77149 17.4287L4.86426 17.5127C5.0922 17.7 5.41698 17.8315 5.98731 17.9082C6.66097 17.9988 7.55692 18 8.85059 18H11.5498C12.8435 18 13.7394 17.9988 14.4131 17.9082C15.065 17.8205 15.3965 17.6613 15.6289 17.4287L15.7129 17.3359C15.9002 17.108 16.0317 16.7832 16.1084 16.2129C16.199 15.5393 16.2002 14.6441 16.2002 13.3506V8.85059C16.2002 7.55695 16.199 6.66097 16.1084 5.98731C16.0317 5.41705 15.9002 5.0922 15.7129 4.86426L15.6289 4.77149C15.3965 4.53885 15.065 4.37971 14.4131 4.29199C13.9078 4.22404 13.2775 4.20684 12.4482 4.20215L11.5498 4.2002H8.85059Z" fill="#19181D"/>
<path opacity="0.5" d="M11.5498 7.32841e-07C12.4648 7.32841e-07 13.3423 0.363743 13.9893 1.01074C14.6363 1.65774 15 2.5352 15 3.4502H13.5C13.5 2.93302 13.2944 2.43699 12.9287 2.07129C12.563 1.70559 12.067 1.5 11.5498 1.5H7.9502C6.23237 1.5 5.01912 1.50138 4.10059 1.625C3.20377 1.74574 2.69991 1.97044 2.33496 2.33496C1.97035 2.69926 1.74567 3.20261 1.625 4.09961C1.50144 5.01832 1.5 6.23204 1.5 7.9502V13.3496C1.5 13.8667 1.70566 14.3628 2.07129 14.7285C2.43698 15.0942 2.93302 15.2998 3.4502 15.2998V16.7998C2.5352 16.7998 1.65774 16.4361 1.01074 15.7891C0.363804 15.1421 5.44068e-07 14.2646 5.44068e-07 13.3496V7.9502C5.43668e-07 6.27469 -0.00140503 4.94227 0.138672 3.90039C0.281694 2.83701 0.584414 1.96395 1.27441 1.27441C1.96425 0.585169 2.83697 0.281837 3.90039 0.138673C4.94221 -0.00155483 6.27447 7.32509e-07 7.9502 7.32841e-07H11.5498Z" fill="#19181D"/>
</svg>
