<svg width="8" height="16" viewBox="0 0 8 16" fill="none" xmlns="http://www.w3.org/2000/svg">
<path fill-rule="evenodd" clip-rule="evenodd" d="M7.23748 0.179442C7.3123 0.24357 7.37375 0.321814 7.41832 0.409703C7.46289 0.497591 7.4897 0.593401 7.49722 0.691657C7.50475 0.789913 7.49283 0.888688 7.46216 0.982337C7.43149 1.07599 7.38267 1.16267 7.31848 1.23744L1.73748 7.74944L7.31848 14.2614C7.38638 14.3356 7.43868 14.4226 7.47227 14.5174C7.50586 14.6122 7.52005 14.7127 7.514 14.8131C7.50795 14.9135 7.48178 15.0116 7.43705 15.1016C7.39232 15.1917 7.32994 15.2718 7.25362 15.3373C7.1773 15.4027 7.08859 15.4522 6.99278 15.4826C6.89697 15.5131 6.79601 15.524 6.6959 15.5147C6.59578 15.5054 6.49857 15.4761 6.41002 15.4284C6.32148 15.3808 6.24342 15.3159 6.18048 15.2374L0.180477 8.23744C0.0640136 8.10152 0 7.92843 0 7.74944C0 7.57045 0.0640136 7.39736 0.180477 7.26144L6.18048 0.261442C6.30996 0.110627 6.49402 0.0173822 6.69221 0.00219421C6.89041 -0.0129938 7.08652 0.0511178 7.23748 0.180443" fill="#7E19DC"/>
</svg>
