<svg width="8" height="16" viewBox="0 0 8 16" fill="none" xmlns="http://www.w3.org/2000/svg">
<path fill-rule="evenodd" clip-rule="evenodd" d="M0.261867 0.180019C0.412946 0.0508131 0.609141 -0.0131274 0.807339 0.00224847C1.00554 0.0176243 1.18952 0.111059 1.31887 0.262019L7.31887 7.26202C7.43533 7.39794 7.49934 7.57103 7.49934 7.75002C7.49934 7.92901 7.43533 8.1021 7.31887 8.23802L1.31887 15.238C1.18738 15.3816 1.00522 15.4684 0.810883 15.4801C0.616547 15.4919 0.42527 15.4275 0.277488 15.3008C0.129706 15.1741 0.037001 14.9948 0.0189701 14.801C0.000939162 14.6071 0.0589957 14.4138 0.180867 14.262L5.76187 7.75002L0.180867 1.23802C0.0514229 1.08719 -0.0128595 0.891154 0.00214061 0.692965C0.0171408 0.494775 0.110197 0.310644 0.260867 0.181019" fill="#D0D2DC"/>
</svg>
